HIERARCHY
ROOT Hips
{
  OFFSET 125.339 82.5092 -297.747
  CHANNELS 6 Xposition Yposition Zposition Zrotation Xrotation Yrotation
  JOINT RightUpLeg
  {
    OFFSET -8.9458 -8.66707 0.101652
    CHANNELS 3 Zrotation Xrotation Yrotation
    JOINT RightLeg
    {
      OFFSET 0 -44.4227 1.3727
      CHANNELS 3 Zrotation Xrotation Yrotation
      JOINT RightFoot
      {
        OFFSET 0.253549 -42.0924 -1.46059
        CHANNELS 3 Zrotation Xrotation Yrotation
        JOINT RightToes
        {
          OFFSET 0.04 -4.41509 8.4991
          CHANNELS 3 Zrotation Xrotation Yrotation
          End Site
          {
            OFFSET -0.08 -0.137448 9.77979
          }
        }
      }
    }
  }
  JOINT Spine
  {
    OFFSET 0 11.8905 0
    CHANNELS 3 Zrotation Xrotation Yrotation
    JOINT Spine1
    {
      OFFSET 0 25.6574 0.127663
      CHANNELS 3 Zrotation Xrotation Yrotation
      JOINT HEad
      {
        OFFSET 0 8.73416 0.011341
        CHANNELS 3 Zrotation Xrotation Yrotation
        End Site
        {
          OFFSET -0.29 12.7742 2.51395
        }
      }
      JOINT LeftShoulder1
      {
        OFFSET 8.99 -0.362252 -0.22
        CHANNELS 3 Zrotation Xrotation Yrotation
        JOINT LeftArm
        {
          OFFSET 10.2827 -0.00338 0.322123
          CHANNELS 3 Zrotation Xrotation Yrotation
          JOINT LeftForeArm
          {
            OFFSET 32.7669 0.099144 -1.42434
            CHANNELS 3 Zrotation Xrotation Yrotation
            JOINT LeftHand
            {
              OFFSET 27.5643 0.085362 1.02216
              CHANNELS 3 Zrotation Xrotation Yrotation
              End Site
              {
                OFFSET 16.7443 -0.6 1.50291
              }
            }
          }
        }
      }
      JOINT RightShoulder
      {
        OFFSET -8.99 -0.362252 -0.22
        CHANNELS 3 Zrotation Xrotation Yrotation
        JOINT RightArm
        {
          OFFSET -10.2827 -0.00338 0.322123
          CHANNELS 3 Zrotation Xrotation Yrotation
          JOINT RightForeArm
          {
            OFFSET -32.8971 0.099144 -1.42434
            CHANNELS 3 Zrotation Xrotation Yrotation
            JOINT RightHand
            {
              OFFSET -27.4921 0.085362 1.02216
              CHANNELS 3 Zrotation Xrotation Yrotation
              End Site
              {
                OFFSET -16.6312 -0.6 1.50291
              }
            }
          }
        }
      }
    }
  }
  JOINT LeftUpLeg
  {
    OFFSET 8.9458 -8.66707 0.101652
    CHANNELS 3 Zrotation Xrotation Yrotation
    JOINT LeftLeg
    {
      OFFSET 0 -44.4227 1.3727
      CHANNELS 3 Zrotation Xrotation Yrotation
      JOINT LeftFoot
      {
        OFFSET -0.253549 -42.0924 -1.46059
        CHANNELS 3 Zrotation Xrotation Yrotation
        JOINT LeftToes
        {
          OFFSET -0.04 -4.41509 8.4991
          CHANNELS 3 Zrotation Xrotation Yrotation
          End Site
          {
            OFFSET 0.08 -0.047448 9.77979
          }
        }
      }
    }
  }
}
MOTION
Frames:	19
Frame Time:	0.0166667
122.805 90.0817 -297.882 -6.95799 -17.1604 -24.1678 -30.236 13.7703 15.0396 59.9286 37.202 -57.37 -18.8289 1.24494 -1.21935 0.0462048 0.000533403 0.662642 -3.46051 31.863 13.4064 0.0365729 -0.0395843 -0.086619 6.64902 17.6607 -25.8584 -3.97569e-016 -1.59028e-015 -1.59028e-015 -157.639 -56.5755 -128.28 -108.099 47.4958 -25.0508 7.56393 21.4863 -2.33825 23.9855 -1.52728 0.910445 78.9127 -16.0874 48.4938 66.494 27.4606 32.7047 11.2655 58.7362 -8.80012 4.00256 -18.3708 -15.8794 -14.9198 24.4043 33.0074 54.6848 0.400962 1.88692 -1.18446e-009 1.5602e-007 -4.87131e-009 
122.752 90.1644 -297.695 -5.13468 -12.4135 -26.4807 -27.4838 9.01472 13.6733 51.3518 37.7566 -50.3523 -14.8552 0.630324 -1.1215 0.0462048 0.000533403 0.662642 -2.46788 25.3241 10.07 0.0450834 -0.0536233 -0.0663485 0.538577 20.8359 -13.5384 1.19271e-015 -4.77083e-015 3.18055e-015 -166.431 -61.2282 -136.595 -107.749 48.4252 -25.8307 6.69747 22.5517 0.624836 24.0925 1.16944 4.41966 79.6495 -18.8531 51.7952 66.7154 34.2655 31.2606 -4.7282 59.2417 3.71288 5.79181 -22.2088 -10.2733 -12.7359 25.9382 24.5636 50.391 -0.392313 2.12391 -1.18446e-009 1.5602e-007 -4.87131e-009 
122.848 90.335 -297.433 -3.54685 -8.45115 -28.6083 -24.6696 4.85288 12.8129 42.489 38.5643 -42.2703 -9.88244 0.070952 -0.956827 0.0462048 0.000533403 0.662642 -1.30914 19.1711 6.94004 -0.0114442 -0.00187853 0.0298504 -5.6103 22.894 -0.28667 1.19271e-015 1.59028e-015 -6.36111e-015 -177.181 -65.4998 -146.772 -107.445 49.4729 -26.843 7.17806 21.1903 -1.66102 24.7099 3.91068 7.60643 78.6521 -21.4934 55.4365 66.46 41.5295 31.7818 0.775756 42.6019 2.53954 7.25002 -25.7413 -5.18968 -9.83173 28.2086 15.567 45.7334 -1.0995 2.18633 -1.18447e-009 1.5602e-007 -4.87131e-009 
123.062 90.5245 -297.126 -2.22735 -5.23916 -30.5318 -21.7989 1.34828 12.3917 33.2919 39.494 -33.1741 -3.96957 -0.379626 -0.719651 0.0462048 0.000533403 0.662642 -0.169487 13.7722 4.38881 -0.0149342 0.000361645 0.0332603 -10.8135 23.6712 13.115 3.97569e-016 0 -0 168.741 -69.0525 -159.938 -107.696 50.7192 -27.8614 6.5616 21.6629 0.264585 35.1889 -1.04993 10.564 64.6627 -20.8519 49.5545 64.1393 48.8713 34.5758 -22.8553 49.8177 15.0739 8.34671 -29.1091 -0.730409 -5.99747 31.1615 6.50308 40.6442 -1.65294 2.06223 -1.18446e-009 1.5602e-007 -4.87132e-009 
123.353 90.6759 -296.803 -1.19034 -2.72893 -32.2423 -18.8831 -1.45381 12.3345 23.5752 40.4228 -23.1693 2.93763 -0.666182 -0.401564 0.0462048 0.000533403 0.662642 0.975394 9.12038 2.31504 -0.0117015 0.000779028 0.030904 -15.1347 23.8997 24.918 0 0 -3.18055e-015 152.138 -71.3273 -175.516 -108.084 51.9843 -28.8583 6.77385 20.7882 -0.997644 36.1184 2.63811 12.1463 61.5199 -21.4674 53.9619 57.2589 55.3124 42.7267 -7.99451 28.795 2.94592 9.05638 -32.4121 3.03477 -1.16899 34.6531 -1.97643 35.1431 -1.98205 1.77354 -1.18446e-009 1.5602e-007 -4.87132e-009 
123.699 90.7373 -296.546 -0.438236 -0.853628 -33.7318 -16.1418 -3.58838 12.5017 15.8537 40.7305 -15.0819 8.74521 -0.528113 -0.0951278 0.0462048 0.000533403 0.662642 2.16602 5.18938 0.658678 -0.0070643 0.00114135 0.0274301 -18.5933 23.9112 35.064 1.98785e-016 -1.19271e-015 3.18055e-015 134.439 -72.2291 167.89 -108.578 53.2034 -29.7205 6.34994 20.9837 0.234272 37.1149 5.80351 13.2867 57.3631 -20.866 57.2548 43.5576 59.8491 57.6155 -11.2629 23.0149 4.85288 9.49924 -35.4397 6.09441 2.98583 37.0265 -9.06563 30.4692 -2.0665 1.55293 -1.18447e-009 1.5602e-007 -4.87131e-009 
124.012 90.6364 -296.329 0.0427135 0.450962 -35.0029 -13.7689 -5.09948 12.801 9.60333 41.0168 -8.52076 13.9373 -0.331507 0.120248 0.0462048 0.000533403 0.662642 3.38834 1.93058 -0.642319 -0.00212432 0.00316129 0.0263699 -19.7412 24.2621 42.4232 3.72721e-016 7.45443e-017 9.54166e-015 117.564 -71.9012 152.148 -109.223 54.3253 -30.4717 6.45832 20.4266 -0.544766 37.777 8.40674 14.1517 55.0357 -17.8714 58.9599 31.7002 62.6087 67.9304 -7.05372 10.5691 3.34567 9.85531 -38.2067 8.60893 7.79557 40.0288 -14.331 25.3783 -2.07428 1.21237 -1.18447e-009 1.5602e-007 -4.87131e-009 
124.262 90.3661 -296.141 0.272915 1.25151 -36.0708 -11.8651 -6.08471 13.1437 4.40771 41.4607 -3.15399 18.7362 -0.115169 0.290155 0.0462048 0.000533403 0.662642 5.81388 -1.21097 -1.17816 0.104066 -0.0318972 0.059619 -20.3949 25.8823 46.7662 3.97569e-016 -1.59028e-015 -6.36111e-015 100.732 -71.2845 137.645 -109.881 55.2861 -31.0856 6.21268 20.4748 0.117693 36.5766 10.5322 13.9331 53.4353 -14.9575 60.098 24.2032 63.5298 75.5178 -29.0289 20.0164 17.6071 10.1763 -40.6746 10.6331 12.8662 43.2832 -17.7276 20.1511 -1.93472 0.864222 -1.18446e-009 1.5602e-007 -4.87131e-009 
124.446 89.977 -296.019 0.289059 1.60499 -36.9489 -10.4522 -6.62878 13.4601 0.0458515 42.0261 1.2097 23.2255 0.197113 0.402872 0.0462048 0.000533403 0.662642 8.06036 -3.65685 -1.45217 0.00864565 0.0104712 0.0245993 -19.4414 27.7489 48.5256 -4.41391e-032 -7.95139e-016 -3.18055e-015 87.1773 -69.8512 125.974 -110.534 56.0558 -31.6144 6.30766 20.094 -0.50495 35.7618 12.2587 13.7811 51.7607 -12.4797 60.6438 21.1937 60.4991 83.6387 -10.2651 14.0387 9.54212 10.5083 -42.6547 12.2399 17.0283 45.6977 -20.4637 15.3152 -1.86961 0.674336 -1.18447e-009 1.5602e-007 -4.87131e-009 
124.55 89.4758 -295.964 -0.3792 -0.355289 -37.448 -10.2755 -4.92654 13.8289 -3.57131 42.7524 4.67907 27.413 0.561633 0.465451 0.0462048 0.000533403 0.662642 9.29323 -3.6681 -2.05294 0.00522556 0.016651 0.0207291 -17.3959 29.6563 47.6981 7.95139e-016 7.95139e-016 -6.36111e-015 76.3887 -68.1659 116.929 -111.145 56.6501 -32.0522 6.20647 20.0471 -0.313551 34.9578 13.651 13.6178 50.161 -10.4625 61.0584 20.5475 58.5995 88.137 -16.917 18.7081 8.57736 9.66624 -42.2597 12.8264 20.4601 47.5897 -22.6161 10.6733 -1.85911 0.475392 -1.18446e-009 1.5602e-007 -4.87132e-009 
124.536 88.8939 -295.988 -1.0857 -2.24063 -37.8451 -10.368 -3.28739 14.0678 -6.51568 43.6749 7.34 31.2849 0.958784 0.477391 0.0462048 0.000533403 0.662642 10.4444 -3.4856 -2.51469 0.00319322 0.0190245 0.0186801 -15.4475 31.3161 46.3205 -2.38542e-015 -4.77083e-015 -1.59028e-014 67.9511 -66.537 110.043 -111.674 57.0885 -32.4349 6.32834 19.754 -0.91672 34.3033 14.7797 13.421 48.6902 -8.63316 61.525 20.861 57.7139 90.7287 -7.41217 14.4077 5.36959 10.241 -41.2753 13.25 21.3301 49.3384 -22.972 6.21952 -1.88296 0.287589 -1.18446e-009 1.5602e-007 -4.87131e-009 
124.445 88.2397 -296.072 -1.7989 -4.04165 -38.1399 -10.6741 -1.77639 14.2079 -8.85908 44.8483 9.30201 34.8716 1.34234 0.453689 0.0462048 0.000533403 0.662642 11.5054 -3.12397 -2.85939 0.00133374 0.0197745 0.017424 -13.6002 32.6504 44.5139 -2.64834e-031 1.59028e-015 9.54166e-015 61.2332 -65.1968 104.729 -112.083 57.4043 -32.7765 6.34018 19.6457 -1.02981 33.6727 15.663 13.2484 47.8275 -9.14431 61.1945 22.6276 56.5428 90.6527 -11.8799 17.7577 5.48039 10.8216 -40.1483 13.4169 21.6129 50.9316 -22.7744 1.9371 -1.89858 0.0921586 -1.18446e-009 1.5602e-007 -4.87131e-009 
124.307 87.5404 -296.209 -2.49781 -5.7556 -38.3293 -11.1394 -0.428382 14.2653 -10.6579 46.2499 10.6629 38.2044 1.69797 0.40133 0.0462048 0.000533403 0.662642 12.4633 -2.60121 -3.10693 -0.000442515 0.0198152 0.016478 -11.8782 33.6296 42.4103 1.59028e-015 1.59028e-015 -6.36111e-015 55.6889 -64.2724 100.48 -112.353 57.6363 -33.114 6.47382 19.4017 -1.6018 33.086 16.3543 13.0647 47.2489 -9.68406 61.0411 24.5712 55.8213 89.8922 -6.66067 15.4463 3.92536 11.4135 -38.931 13.3537 21.4261 52.3904 -22.1514 -2.24693 -1.89308 -0.10947 -1.18446e-009 1.5602e-007 -4.87132e-009 
124.152 86.82 -296.392 -3.16837 -7.37976 -38.4109 -11.7311 0.735522 14.2509 -11.9554 47.8252 11.5121 41.3287 2.01757 0.327119 0.0462048 0.000533403 0.662642 13.3031 -1.93669 -3.27165 -0.00215456 0.0197608 0.0153591 -10.3112 34.2567 40.1341 -1.59028e-015 -1.59028e-015 3.18055e-015 50.897 -63.8248 96.9084 -112.467 57.8306 -33.4708 6.5208 19.2698 -1.83495 32.447 16.8653 12.8984 47.0039 -10.2566 61.0933 26.625 55.2589 88.6887 -9.41869 17.5551 4.26123 12.0124 -37.6903 13.0796 20.8794 53.721 -21.2205 -6.38104 -1.86088 -0.3152 -1.18447e-009 1.5602e-007 -4.87131e-009 
124.007 86.0997 -296.607 -3.80728 -8.90295 -38.3899 -12.4301 1.71841 14.1789 -12.7859 49.4998 11.9271 44.2968 2.29549 0.237203 0.0462048 0.000533403 0.662642 14.0194 -1.15075 -3.35957 -0.0037446 0.0197207 0.0139691 -8.92863 34.5602 37.797 1.59028e-015 -1.59028e-015 -0 46.5135 -63.8565 93.6954 -112.415 58.0336 -33.8889 6.61165 19.073 -2.28667 31.7558 17.2268 12.7209 47.0768 -10.7968 61.3046 28.6008 54.9105 87.2859 -6.32036 16.2774 3.40328 12.619 -36.4887 12.6162 20.0534 54.9204 -20.0648 -10.4903 -1.79862 -0.521397 -1.18447e-009 1.5602e-007 -4.87132e-009 
123.908 85.3975 -296.851 -4.42335 -10.3138 -38.2773 -13.2237 2.54141 14.0655 -13.184 51.1956 11.9777 47.1609 2.53807 0.135427 0.0462048 0.000533403 0.662642 14.9971 0.506734 -2.32046 0.0222874 0.0818446 0.0940654 -7.28707 33.8888 33.9965 -1.59028e-015 4.77083e-015 3.18055e-015 41.2503 -65.7385 89.8741 -112.149 58.2855 -34.409 6.62341 18.9586 -2.4794 30.7725 16.1452 11.8701 47.4771 -11.2101 61.7113 30.4483 54.6719 85.8502 -7.92757 17.5589 3.63521 13.2283 -35.3728 11.9788 18.9986 55.9832 -18.7243 -14.5797 -1.70568 -0.723288 -1.18446e-009 1.5602e-007 -4.87132e-009 
123.88 84.7307 -297.111 -5.01937 -11.5951 -38.0888 -14.1029 3.22653 13.927 -13.1863 52.8318 11.7233 49.9659 2.74727 0.0246635 0.0462048 0.000533403 0.662642 15.7739 2.12129 -1.40704 -0.00941482 0.0140903 0.00493954 -6.04207 33.1697 30.7972 3.18055e-015 0 3.18055e-015 35.5689 -67.5061 85.457 -111.652 58.6204 -35.0974 6.63319 18.8366 -2.75464 29.7635 15.3671 11.1556 48.17 -11.5559 62.2004 32.1452 54.5893 84.4588 -6.02054 16.8688 3.04015 13.8305 -34.3784 11.187 17.7389 56.9003 -17.2017 -18.6418 -1.58395 -0.916039 -1.18447e-009 1.5602e-007 -4.87131e-009 
123.928 84.1168 -297.369 -5.5888 -12.7246 -37.8428 -15.057 3.79706 13.7766 -12.8264 54.323 11.2069 52.74 2.92514 -0.0926449 0.0462048 0.000533403 0.662642 16.3532 3.66978 -0.593961 -0.011625 0.0107899 -0.00156025 -6.83206 32.4022 28.4006 -3.53113e-031 3.18055e-015 6.36111e-015 28.9361 -69.3434 79.9731 -110.895 59.0562 -36.0214 6.56961 18.8054 -2.8311 28.6792 14.5874 10.4573 49.1011 -11.8446 62.7589 33.7414 54.569 83.1295 -6.93397 17.6699 3.09177 14.4179 -33.5246 10.2681 16.2839 57.6574 -15.483 -22.6667 -1.43727 -1.09557 -1.18446e-009 1.5602e-007 -4.87131e-009 
124.048 83.5715 -297.601 -6.11894 -13.6775 -37.5594 -16.0708 4.27858 13.623 -12.1317 55.5824 10.4554 55.4933 3.07305 -0.214035 0.0462048 0.000533403 0.662642 16.7379 5.13493 0.155187 -0.0130091 0.0107899 -0.00156025 -9.31807 31.9291 26.7301 -5.29669e-031 -3.18055e-015 -9.54166e-015 21.1818 -71.007 73.1829 -109.853 59.5836 -37.2351 6.47563 18.8316 -2.91491 27.5838 13.8718 9.79479 50.1845 -12.0644 63.3455 35.2344 54.6284 81.8836 -5.74713 17.3573 2.59837 14.9891 -32.8107 9.25645 14.6463 58.2336 -13.5622 -26.6483 -1.27046 -1.2588 -1.18447e-009 1.5602e-007 -4.87132e-009 
